<svg width="12" height="13" viewBox="0 0 12 13" fill="none" xmlns="http://www.w3.org/2000/svg">
<path d="M6.35 9.79803C6.23334 9.8647 6.12917 9.85436 6.0375 9.76703C5.94584 9.6797 5.93334 9.57753 6 9.46053L7.2125 7.33553H1.5C1.35834 7.33553 1.23967 7.28753 1.144 7.19153C1.04834 7.09553 1.00034 6.97686 1 6.83553C0.999668 6.6942 1.04767 6.57553 1.144 6.47953C1.24034 6.38353 1.359 6.33553 1.5 6.33553H7.2125L6 4.21053C5.93334 4.09386 5.94584 3.99186 6.0375 3.90453C6.12917 3.8172 6.23334 3.8067 6.35 3.87303L10.3375 6.41053C10.4958 6.51053 10.575 6.6522 10.575 6.83553C10.575 7.01886 10.4958 7.16053 10.3375 7.26053L6.35 9.79803Z" fill="white"/>
</svg>
