<svg width="81" height="81" viewBox="0 0 81 81" fill="none" xmlns="http://www.w3.org/2000/svg">
<path opacity="0.3" d="M80.3828 40.5039C80.3828 62.5953 62.4742 80.5039 40.3828 80.5039C18.2914 80.5039 0.382812 62.5953 0.382812 40.5039C0.382812 18.4125 18.2914 0.503906 40.3828 0.503906C62.4742 0.503906 80.3828 18.4125 80.3828 40.5039ZM11.29 40.5039C11.29 56.5714 24.3153 69.5968 40.3828 69.5968C56.4504 69.5968 69.4757 56.5714 69.4757 40.5039C69.4757 24.4364 56.4504 11.411 40.3828 11.411C24.3153 11.411 11.29 24.4364 11.29 40.5039Z" fill="#2F2E30"/>
<circle cx="40.3828" cy="40.5039" r="29" fill="black"/>
<g clip-path="url(#clip0_3101_1061)">
<path d="M32.0482 52.1706C33.8891 52.1706 35.3815 50.6782 35.3815 48.8372C35.3815 46.9963 33.8891 45.5039 32.0482 45.5039C30.2072 45.5039 28.7148 46.9963 28.7148 48.8372C28.7148 50.6782 30.2072 52.1706 32.0482 52.1706Z" stroke="#FAFAFA" stroke-width="2" stroke-linecap="round" stroke-linejoin="round"/>
<path d="M48.7161 52.1706C50.5571 52.1706 52.0495 50.6782 52.0495 48.8372C52.0495 46.9963 50.5571 45.5039 48.7161 45.5039C46.8752 45.5039 45.3828 46.9963 45.3828 48.8372C45.3828 50.6782 46.8752 52.1706 48.7161 52.1706Z" stroke="#FAFAFA" stroke-width="2" stroke-linecap="round" stroke-linejoin="round"/>
<path d="M28.7148 48.8379H27.3815C26.2769 48.8379 25.3815 47.9425 25.3815 46.8379V42.1712M23.7148 28.8379H40.0482C41.1527 28.8379 42.0482 29.7333 42.0482 30.8379V48.8379M35.3815 48.8379H45.3815M52.0482 48.8379H53.3815C54.4861 48.8379 55.3815 47.9425 55.3815 46.8379V38.8379M55.3815 38.8379H42.0482M55.3815 38.8379L50.9641 31.4756C50.6027 30.8732 49.9517 30.5046 49.2491 30.5046H42.0482" stroke="#FAFAFA" stroke-width="2" stroke-linecap="round" stroke-linejoin="round"/>
<path d="M28.3828 48.5039H27.0495C25.9449 48.5039 25.0495 47.6085 25.0495 46.5039V41.8372M23.3828 28.5039H39.7161C40.8207 28.5039 41.7161 29.3993 41.7161 30.5039V48.5039M35.3828 48.5039H45.0495M52.3828 48.5039H53.0495C54.1541 48.5039 55.0495 47.6085 55.0495 46.5039V38.5039M55.0495 38.5039H41.7161M55.0495 38.5039L50.6321 31.1416C50.2706 30.5392 49.6196 30.1706 48.9171 30.1706H41.7161" stroke="#FAFAFA" stroke-width="2" stroke-linecap="round" stroke-linejoin="round"/>
<path d="M25.3828 32.3223H32.0495" stroke="#FAFAFA" stroke-width="2" stroke-linecap="round" stroke-linejoin="round"/>
<path d="M22.1992 35.959H28.8659" stroke="#FAFAFA" stroke-width="2" stroke-linecap="round" stroke-linejoin="round"/>
<path d="M25.3828 39.5957H32.0495" stroke="#FAFAFA" stroke-width="2" stroke-linecap="round" stroke-linejoin="round"/>
</g>
<defs>
<clipPath id="clip0_3101_1061">
<rect width="40" height="40" fill="white" transform="translate(20.3828 20.5039)"/>
</clipPath>
</defs>
</svg>
