<svg width="21" height="21" viewBox="0 0 21 21" fill="none" xmlns="http://www.w3.org/2000/svg">
<g clip-path="url(#clip0_3097_3555)">
<path fill-rule="evenodd" clip-rule="evenodd" d="M4.43304 10.6698C4.43304 10.0295 4.53939 9.4156 4.7292 8.8398L1.40685 6.30273C0.759344 7.61742 0.394531 9.0988 0.394531 10.6698C0.394531 12.2394 0.758895 13.7199 1.40551 15.0337L4.72606 12.4917C4.53805 11.9186 4.43304 11.307 4.43304 10.6698Z" fill="#FBBC05"/>
<path fill-rule="evenodd" clip-rule="evenodd" d="M10.2658 4.84528C11.6569 4.84528 12.9133 5.33818 13.9005 6.14474L16.7723 3.27698C15.0223 1.75348 12.7787 0.8125 10.2658 0.8125C6.36465 0.8125 3.01178 3.04353 1.40625 6.30336L4.7286 8.84043C5.49412 6.51665 7.67627 4.84528 10.2658 4.84528Z" fill="#EB4335"/>
<path fill-rule="evenodd" clip-rule="evenodd" d="M10.2659 16.4971C7.67627 16.4971 5.49412 14.8257 4.7286 12.502L1.40625 15.0386C3.01178 18.2989 6.36465 20.5299 10.2659 20.5299C12.6737 20.5299 14.9725 19.6749 16.6979 18.073L13.5442 15.635C12.6544 16.1955 11.5339 16.4971 10.2659 16.4971Z" fill="#34A853"/>
<path fill-rule="evenodd" clip-rule="evenodd" d="M19.6888 10.6693C19.6888 10.0868 19.5991 9.45947 19.4645 8.87695H10.2656V12.6857H15.5606C15.2958 13.9843 14.5752 14.9826 13.544 15.6323L16.6976 18.0704C18.51 16.3882 19.6888 13.8825 19.6888 10.6693Z" fill="#4285F4"/>
</g>
<defs>
<clipPath id="clip0_3097_3555">
<rect width="20.1639" height="20.1639" fill="white" transform="translate(0.0898438 0.585938)"/>
</clipPath>
</defs>
</svg>
