<svg width="81" height="81" viewBox="0 0 81 81" fill="none" xmlns="http://www.w3.org/2000/svg">
<path opacity="0.3" d="M80.3828 40.5039C80.3828 62.5953 62.4742 80.5039 40.3828 80.5039C18.2914 80.5039 0.382812 62.5953 0.382812 40.5039C0.382812 18.4125 18.2914 0.503906 40.3828 0.503906C62.4742 0.503906 80.3828 18.4125 80.3828 40.5039ZM11.29 40.5039C11.29 56.5714 24.3153 69.5968 40.3828 69.5968C56.4504 69.5968 69.4757 56.5714 69.4757 40.5039C69.4757 24.4364 56.4504 11.411 40.3828 11.411C24.3153 11.411 11.29 24.4364 11.29 40.5039Z" fill="#2F2E30"/>
<circle cx="40.3828" cy="40.5039" r="29" fill="black"/>
<g clip-path="url(#clip0_3101_1079)">
<path d="M33.7174 45.5033C33.7174 43.6623 32.2251 42.1699 30.3841 42.1699C28.5432 42.1699 27.0508 43.6623 27.0508 45.5033V48.8366C27.0508 50.6775 28.5432 52.1699 30.3841 52.1699C32.2251 52.1699 33.7174 50.6775 33.7174 48.8366V45.5033Z" stroke="white" stroke-width="2" stroke-linecap="round" stroke-linejoin="round"/>
<path d="M53.7174 45.5033C53.7174 43.6623 52.2251 42.1699 50.3841 42.1699C48.5432 42.1699 47.0508 43.6623 47.0508 45.5033V48.8366C47.0508 50.6775 48.5432 52.1699 50.3841 52.1699C52.2251 52.1699 53.7174 50.6775 53.7174 48.8366V45.5033Z" stroke="white" stroke-width="2" stroke-linecap="round" stroke-linejoin="round"/>
<path d="M27.0508 45.5033V40.5033C27.0508 36.967 28.4555 33.5757 30.956 31.0752C33.4565 28.5747 36.8479 27.1699 40.3841 27.1699C43.9203 27.1699 47.3117 28.5747 49.8122 31.0752C52.3127 33.5757 53.7174 36.967 53.7174 40.5033V45.5033" stroke="white" stroke-width="2" stroke-linecap="round" stroke-linejoin="round"/>
<path d="M50.3828 52.1699C50.3828 53.496 49.3292 54.7678 47.4539 55.7055C45.5785 56.6431 43.035 57.1699 40.3828 57.1699" stroke="white" stroke-width="2" stroke-linecap="round" stroke-linejoin="round"/>
</g>
<defs>
<clipPath id="clip0_3101_1079">
<rect width="40" height="40" fill="white" transform="translate(20.3828 20.5039)"/>
</clipPath>
</defs>
</svg>
