<svg width="286" height="72" viewBox="0 0 286 72" fill="none" xmlns="http://www.w3.org/2000/svg">
<path d="M46.636 31.3038H58.48C61.6 31.3038 63.892 31.8678 65.356 32.9958C66.844 34.1238 67.588 35.8878 67.588 38.2878C67.588 39.8718 67.3 41.1078 66.724 41.9958C66.148 42.8838 65.236 43.4718 63.988 43.7598V43.7958C65.548 44.0838 66.688 44.7438 67.408 45.7758C68.152 46.7838 68.524 48.2238 68.524 50.0958C68.524 52.6878 67.732 54.5958 66.148 55.8198C64.588 57.0438 62.152 57.6558 58.84 57.6558H46.636V31.3038ZM57.292 41.4558C58.036 41.4558 58.588 41.3118 58.948 41.0238C59.308 40.7358 59.488 40.2798 59.488 39.6558C59.488 39.0078 59.308 38.5278 58.948 38.2158C58.588 37.9038 58.024 37.7478 57.256 37.7478H54.7V41.4558H57.292ZM58.12 51.2118C59.68 51.2118 60.46 50.5158 60.46 49.1238C60.46 47.7078 59.656 46.9998 58.048 46.9998H54.7V51.2118H58.12ZM88.6474 57.6558L80.3314 48.2238V57.6558H72.2674V31.3038H80.3314V41.5998L88.1794 31.3038H97.6114L86.7034 44.8038L98.6554 57.6558H88.6474ZM118.402 37.7478V41.4558H129.85V47.8998H118.402V57.6558H110.338V31.3038H131.326V37.7478H118.402ZM149.906 57.6558L148.214 53.9118H138.566L136.874 57.6558H128.234L139.898 31.3398H146.882L158.546 57.6558H149.906ZM143.39 41.1318L140.87 47.7918H145.946L143.39 41.1318ZM160.935 49.0518C162.063 49.7238 163.479 50.2878 165.183 50.7438C166.887 51.1758 168.495 51.3918 170.007 51.3918C171.063 51.3918 171.795 51.2958 172.203 51.1038C172.635 50.8878 172.851 50.4558 172.851 49.8078C172.851 49.2798 172.659 48.9318 172.275 48.7638C171.915 48.5718 171.219 48.3918 170.187 48.2238L168.927 48.0078C166.407 47.5278 164.379 46.9398 162.843 46.2438C161.307 45.5478 160.179 44.6838 159.459 43.6518C158.739 42.5958 158.379 41.3238 158.379 39.8358C158.379 36.7638 159.219 34.5198 160.899 33.1038C162.603 31.6638 165.363 30.9438 169.179 30.9438C171.267 30.9438 173.259 31.2198 175.155 31.7718C177.051 32.3238 178.731 33.0558 180.195 33.9678L177.027 39.6198C175.971 39.0438 174.687 38.5758 173.175 38.2158C171.687 37.8558 170.295 37.6758 168.999 37.6758C168.087 37.6758 167.427 37.7838 167.019 37.9998C166.635 38.2158 166.443 38.5878 166.443 39.1158C166.443 39.5238 166.551 39.8358 166.767 40.0518C166.983 40.2678 167.283 40.4238 167.667 40.5198C168.051 40.6158 168.735 40.7478 169.719 40.9158C172.431 41.3238 174.591 41.8638 176.199 42.5358C177.831 43.1838 179.019 44.0358 179.763 45.0918C180.531 46.1238 180.915 47.4318 180.915 49.0158C180.915 52.1598 180.075 54.4638 178.395 55.9278C176.715 57.3678 173.967 58.0878 170.151 58.0878C167.823 58.0878 165.603 57.8118 163.491 57.2598C161.379 56.6838 159.567 55.8438 158.055 54.7398L160.935 49.0518ZM208.539 31.3038V57.6558H200.511V48.0078H192.267V57.6558H184.239V31.3038H192.267V41.5638H200.511V31.3038H208.539ZM221.977 57.6558H213.949V31.3038H221.977V57.6558ZM239.914 58.0878C235.282 58.0878 231.766 56.9358 229.366 54.6318C226.99 52.3278 225.802 48.9438 225.802 44.4798C225.802 40.0158 226.99 36.6318 229.366 34.3278C231.766 32.0238 235.282 30.8718 239.914 30.8718C244.546 30.8718 248.05 32.0238 250.426 34.3278C252.802 36.6318 253.99 40.0158 253.99 44.4798C253.99 48.9438 252.802 52.3278 250.426 54.6318C248.05 56.9358 244.546 58.0878 239.914 58.0878ZM239.914 37.6038C237.922 37.6038 236.41 38.1918 235.378 39.3678C234.37 40.5198 233.866 42.2238 233.866 44.4798C233.866 46.7358 234.37 48.4398 235.378 49.5918C236.41 50.7438 237.922 51.3198 239.914 51.3198C241.882 51.3198 243.37 50.7438 244.378 49.5918C245.41 48.4398 245.926 46.7358 245.926 44.4798C245.926 42.2238 245.422 40.5198 244.414 39.3678C243.406 38.1918 241.906 37.6038 239.914 37.6038ZM275.252 57.6558L265.532 44.7318V57.6558H257.504V31.3038H264.92L274.676 44.3718V31.3038H282.704V57.6558H275.252Z" fill="black"/>
<path d="M0.288 58.56L0.96 40.992H6.336L7.872 51.168C9.152 51.424 10.56 51.712 12.096 52.032C13.696 52.352 15.264 52.672 16.8 52.992C18.4 53.248 19.808 53.472 21.024 53.664C22.24 53.792 23.104 53.856 23.616 53.856C23.936 53.856 24.544 53.6 25.44 53.088C26.4 52.576 27.424 51.968 28.512 51.264C29.6 50.496 30.56 49.728 31.392 48.96C32.288 48.192 32.768 47.552 32.832 47.04C32.96 46.336 33.056 45.536 33.12 44.64C33.184 43.68 33.216 42.752 33.216 41.856C33.216 40.896 33.152 40.064 33.024 39.36C32.96 38.656 32.832 38.208 32.64 38.016C32.128 37.312 31.072 36.416 29.472 35.328C27.936 34.24 26.144 33.056 24.096 31.776C22.112 30.432 20.096 29.088 18.048 27.744C16.064 26.4 14.304 25.12 12.768 23.904C11.296 22.688 10.304 21.632 9.792 20.736C9.664 20.416 9.504 19.808 9.312 18.912C9.184 17.952 9.088 16.864 9.024 15.648C8.96 14.368 8.896 13.152 8.832 12C7.68 12.896 6.784 13.696 6.144 14.4C5.568 15.04 5.152 15.68 4.896 16.32C4.704 16.96 4.608 17.728 4.608 18.624C4.608 19.648 4.672 20.544 4.8 21.312C4.992 22.016 5.216 22.688 5.472 23.328C6.112 24.544 7.104 25.632 8.448 26.592C9.792 27.552 11.584 28.832 13.824 30.432C15.296 31.456 16.8 32.512 18.336 33.6C19.872 34.624 21.312 35.648 22.656 36.672C24.064 37.632 25.248 38.528 26.208 39.36C27.168 40.128 27.776 40.8 28.032 41.376C28.352 42.016 28.48 42.752 28.416 43.584C28.416 44.352 28.352 44.992 28.224 45.504C27.968 46.08 27.296 46.752 26.208 47.52C25.184 48.224 24.224 48.8 23.328 49.248C23.392 48.48 23.424 47.712 23.424 46.944C23.488 46.176 23.488 45.472 23.424 44.832C23.424 44.192 23.296 43.712 23.04 43.392C22.528 42.688 21.472 41.76 19.872 40.608C18.336 39.456 16.544 38.208 14.496 36.864C12.448 35.52 10.4 34.144 8.352 32.736C6.368 31.328 4.64 29.984 3.168 28.704C1.76 27.36 0.928 26.208 0.672 25.248C0.48 24.544 0.319999 23.744 0.191999 22.848C0.0639997 21.888 0 20.896 0 19.872C0 18.848 0.0319998 17.888 0.0959997 16.992C0.224 16.032 0.384 15.232 0.576 14.592C1.152 13.504 2.08 12.32 3.36 11.04C4.64 9.696 6.08 8.384 7.68 7.104C9.344 5.75999 11.008 4.576 12.672 3.552C14.4 2.464 16 1.6 17.472 0.959999C19.008 0.32 20.256 0 21.216 0C21.6 0 22.272 0.0319977 23.232 0.0959969C24.256 0.0959969 25.44 0.159996 26.784 0.287994C28.192 0.351994 29.632 0.447994 31.104 0.575996C32.64 0.703995 34.112 0.863995 35.52 1.056C36.928 1.248 38.176 1.44 39.264 1.632L38.496 18.144H33.12L31.68 8.35199C30.72 7.904 29.568 7.52 28.224 7.2C26.944 6.81599 25.664 6.528 24.384 6.336C23.104 6.144 22.016 6.048 21.12 6.048C20.608 6.048 20.16 6.112 19.776 6.24C19.392 6.304 19.072 6.39999 18.816 6.52799C18.624 6.65599 18.464 6.848 18.336 7.104C18.08 7.55199 17.888 8.256 17.76 9.216C17.696 10.176 17.664 11.2 17.664 12.288C17.728 13.312 17.824 14.272 17.952 15.168C18.08 16 18.272 16.544 18.528 16.8C19.296 17.632 20.352 18.528 21.696 19.488C23.104 20.448 24.64 21.44 26.304 22.464C28.032 23.488 29.76 24.576 31.488 25.728C33.28 26.816 34.912 27.968 36.384 29.184C37.92 30.336 39.2 31.488 40.224 32.64C40.416 33.408 40.544 34.496 40.608 35.904C40.736 37.312 40.8 38.816 40.8 40.416C40.8 41.952 40.736 43.392 40.608 44.736C40.544 46.08 40.416 47.072 40.224 47.712C39.648 48.928 38.656 50.24 37.248 51.648C35.84 52.992 34.24 54.272 32.448 55.488C30.72 56.704 29.056 57.696 27.456 58.464C25.856 59.168 24.576 59.52 23.616 59.52C22.4 59.52 20.768 59.488 18.72 59.424C16.736 59.36 14.592 59.264 12.288 59.136C9.984 59.072 7.776 58.976 5.664 58.848C3.552 58.784 1.76 58.688 0.288 58.56Z" fill="black"/>
</svg>
