<svg width="21" height="21" viewBox="0 0 21 21" fill="none" xmlns="http://www.w3.org/2000/svg">
<g clip-path="url(#clip0_3101_978)">
<path d="M20.1826 9.10507C19.141 5.37994 16.5714 2.67578 14.0736 2.67578C13.873 2.67578 13.6725 2.69324 13.4773 2.72777C13.3665 2.74722 13.2697 2.81231 13.2098 2.90677C13.15 3.00182 13.1332 3.11731 13.1635 3.22526L13.6777 5.06442C13.7273 5.24202 13.8986 5.36208 14.0766 5.35394L14.1174 5.35315C15.0438 5.35315 16.7367 6.74144 17.5997 9.827C17.6338 9.94944 17.6662 10.0747 17.6973 10.2052C16.7285 9.7258 15.5728 9.61487 14.5262 9.90638C12.1652 10.567 10.782 13.0249 11.442 15.3855C11.977 17.2983 13.7366 18.6346 15.721 18.6346C16.1253 18.6346 16.5289 18.5788 16.9208 18.4691C18.4778 18.0339 19.6484 16.7413 20.2171 14.8301C20.7305 13.1058 20.7176 11.0192 20.1826 9.10507Z" fill="black"/>
<path d="M3.77605 2.67773C3.57582 2.67773 3.3752 2.6948 3.18013 2.72933C3.0696 2.74838 2.97256 2.81386 2.91283 2.90832C2.8531 3.00338 2.83623 3.11887 2.8664 3.22682L3.38075 5.06597C3.43036 5.24358 3.59844 5.36363 3.77962 5.3555L3.8201 5.3547C4.74643 5.3547 6.43953 6.743 7.30255 9.82856C7.33688 9.95179 7.36922 10.077 7.40018 10.2068C6.43099 9.72735 5.27567 9.61643 4.22909 9.90794C1.86844 10.5685 0.484904 13.0264 1.14532 15.3871C1.68031 17.2999 3.43989 18.6362 5.4243 18.6362C5.82853 18.6362 6.23215 18.5804 6.62427 18.4707C8.18104 18.0355 9.35165 16.7428 9.92058 14.8317C10.4337 13.1074 10.421 11.0206 9.88585 9.10623C8.84364 5.38149 6.27442 2.67773 3.77605 2.67773Z" fill="black"/>
</g>
<defs>
<clipPath id="clip0_3101_978">
<rect width="19.6117" height="19.6117" fill="white" transform="translate(0.980469 0.847656)"/>
</clipPath>
</defs>
</svg>
