<svg width="168" height="25" viewBox="0 0 168 25" fill="none" xmlns="http://www.w3.org/2000/svg">
<path d="M13 10.6562H17.5L17 12.6562H13V21.6562H11V12.6562H7V10.6562H11V8.78425C11 7.00125 11.186 6.35425 11.534 5.70225C11.875 5.05806 12.4018 4.53126 13.046 4.19025C13.698 3.84225 14.345 3.65625 16.128 3.65625C16.65 3.65625 17.108 3.70625 17.5 3.80625V5.65625H16.128C14.804 5.65625 14.401 5.73425 13.99 5.95425C13.686 6.11625 13.46 6.34225 13.298 6.64625C13.078 7.05725 13 7.46025 13 8.78425V10.6562Z" fill="white"/>
<g clip-path="url(#clip0_3038_4923)">
<path d="M62.1211 5.09961C62.9979 4.74879 63.9592 4.66477 64.8838 4.85742C65.8082 5.05013 66.6557 5.51087 67.3193 6.18262L67.3486 6.21289H67.3906C67.7296 6.21051 68.0806 6.25363 68.498 6.19434C68.882 6.13977 69.3278 5.99828 69.915 5.66602C69.6091 7.15072 69.4324 7.82354 68.7646 8.73926L68.7451 8.76562V8.79883C68.7451 12.5977 67.5781 15.4126 65.8262 17.3955C64.0729 19.3796 61.7275 20.5378 59.3623 21.0098C57.7452 21.3324 55.754 21.2294 53.9961 20.8672C53.1179 20.6862 52.301 20.4404 51.6201 20.1533C51.037 19.9074 50.5601 19.6322 50.2295 19.3447C50.6606 19.3026 51.412 19.2093 52.2441 19.0156C53.2439 18.783 54.3719 18.4052 55.2031 17.7969L55.3193 17.7119L55.1992 17.6328C54.5077 17.177 52.8117 16.1546 51.7314 14.1729C50.667 12.22 50.1929 9.31921 51.9141 5.08203C53.5793 6.9995 55.2727 8.31666 56.9951 9.02344C57.5763 9.26181 57.9423 9.37958 58.2314 9.44727C58.5195 9.51466 58.7322 9.53165 58.9922 9.56738L59.2871 9.6084L59.1074 9.42773C59.1323 8.49813 59.4255 7.59492 59.9541 6.8291C60.4906 6.05205 61.2444 5.45039 62.1211 5.09961ZM63.9053 6.55762C63.119 6.55749 62.3638 6.86619 61.8027 7.41699C61.3119 7.89892 61.0038 8.53252 60.9248 9.20996L60.9053 9.50293L60.877 11.0771C60.8756 11.1476 60.8592 11.2175 60.8291 11.2812C60.799 11.3449 60.7556 11.4014 60.7021 11.4473C60.6487 11.4931 60.5861 11.5279 60.5186 11.5479C60.4511 11.5677 60.3802 11.5728 60.3105 11.5635L58.749 11.3516C56.7175 11.0745 54.7663 10.1387 52.8896 8.5752L52.7578 8.46484L52.7275 8.63379C52.4257 10.3044 52.5679 11.7272 53.1475 12.958C53.7267 14.1882 54.7388 15.217 56.1562 16.1084L57.9023 17.2061C57.9714 17.2495 58.0296 17.3092 58.0703 17.3799C58.111 17.4507 58.1339 17.5307 58.1367 17.6123C58.1395 17.694 58.1217 17.7752 58.0859 17.8486C58.0501 17.922 57.9967 17.9861 57.9307 18.0342L56.3389 19.1973L56.1152 19.3604L56.3916 19.377C57.3447 19.4363 58.2532 19.3942 59.0098 19.2441C61.3887 18.7691 63.375 17.6352 64.7656 15.877C66.1559 14.1189 66.9453 11.7445 66.9453 8.79883C66.9453 8.6533 66.8715 8.44124 66.7441 8.21387C66.6144 7.98223 66.4211 7.72116 66.167 7.47656C65.6584 6.9871 64.8999 6.5577 63.9053 6.55762Z" fill="white" stroke="black" stroke-width="0.2"/>
</g>
<path d="M113 3.65625H103C101.939 3.65625 100.922 4.07768 100.172 4.82782C99.4214 5.57797 99 6.59538 99 7.65625V17.6562C99 18.7171 99.4214 19.7345 100.172 20.4847C100.922 21.2348 101.939 21.6562 103 21.6562H113C114.061 21.6562 115.078 21.2348 115.828 20.4847C116.579 19.7345 117 18.7171 117 17.6562V7.65625C117 6.59538 116.579 5.57797 115.828 4.82782C115.078 4.07768 114.061 3.65625 113 3.65625Z" stroke="white" stroke-width="1.5" stroke-linejoin="round"/>
<path d="M108 16.6562C109.061 16.6562 110.078 16.2348 110.828 15.4847C111.579 14.7345 112 13.7171 112 12.6562C112 11.5954 111.579 10.578 110.828 9.82782C110.078 9.07768 109.061 8.65625 108 8.65625C106.939 8.65625 105.922 9.07768 105.172 9.82782C104.421 10.578 104 11.5954 104 12.6562C104 13.7171 104.421 14.7345 105.172 15.4847C105.922 16.2348 106.939 16.6562 108 16.6562V16.6562Z" stroke="white" stroke-width="1.5" stroke-linejoin="round"/>
<path d="M113.5 8.15625C113.765 8.15625 114.02 8.05089 114.207 7.86336C114.395 7.67582 114.5 7.42147 114.5 7.15625C114.5 6.89103 114.395 6.63668 114.207 6.44914C114.02 6.26161 113.765 6.15625 113.5 6.15625C113.235 6.15625 112.98 6.26161 112.793 6.44914C112.605 6.63668 112.5 6.89103 112.5 7.15625C112.5 7.42147 112.605 7.67582 112.793 7.86336C112.98 8.05089 113.235 8.15625 113.5 8.15625Z" fill="white"/>
<path d="M155.5 9.70625C156.417 8.76925 157.611 8.15625 159 8.15625C160.459 8.15625 161.858 8.73571 162.889 9.76716C163.921 10.7986 164.5 12.1976 164.5 13.6562V21.1562H162.5V13.6562C162.5 12.728 162.131 11.8378 161.475 11.1814C160.818 10.525 159.928 10.1562 159 10.1562C158.072 10.1562 157.182 10.525 156.525 11.1814C155.869 11.8378 155.5 12.728 155.5 13.6562V21.1562H153.5V8.65625H155.5V9.70625ZM148.5 6.65625C148.102 6.65625 147.721 6.49821 147.439 6.21691C147.158 5.93561 147 5.55407 147 5.15625C147 4.75843 147.158 4.37689 147.439 4.09559C147.721 3.81429 148.102 3.65625 148.5 3.65625C148.898 3.65625 149.279 3.81429 149.561 4.09559C149.842 4.37689 150 4.75843 150 5.15625C150 5.55407 149.842 5.93561 149.561 6.21691C149.279 6.49821 148.898 6.65625 148.5 6.65625ZM147.5 8.65625H149.5V21.1562H147.5V8.65625Z" fill="white"/>
<defs>
<clipPath id="clip0_3038_4923">
<rect width="24" height="24" fill="white" transform="translate(48 0.65625)"/>
</clipPath>
</defs>
</svg>
