<svg width="111" height="18" viewBox="0 0 111 18" fill="none" xmlns="http://www.w3.org/2000/svg">
<path d="M9.44482 0.179688L11.3847 6.14987L17.6621 6.14987L12.5835 9.83965L14.5234 15.8098L9.44482 12.1201L4.36628 15.8098L6.30611 9.83965L1.22757 6.14987L7.50499 6.14987L9.44482 0.179688Z" fill="#FFC44D"/>
<path d="M28.0034 0.179688L29.9432 6.14987L36.2207 6.14987L31.1421 9.83965L33.082 15.8098L28.0034 12.1201L22.9249 15.8098L24.8647 9.83965L19.7862 6.14987L26.0636 6.14987L28.0034 0.179688Z" fill="#FFC44D"/>
<path d="M46.5659 0.179688L48.5057 6.14987L54.7832 6.14987L49.7046 9.83965L51.6445 15.8098L46.5659 12.1201L41.4874 15.8098L43.4272 9.83965L38.3487 6.14987L44.6261 6.14987L46.5659 0.179688Z" fill="#FFC44D"/>
<path d="M65.1245 0.179688L67.0643 6.14987L73.3418 6.14987L68.2632 9.83965L70.2031 15.8098L65.1245 12.1201L60.046 15.8098L61.9858 9.83965L56.9073 6.14987L63.1847 6.14987L65.1245 0.179688Z" fill="#FFC44D"/>
<path d="M83.687 0.179688L85.6268 6.14987L91.9043 6.14987L86.8257 9.83965L88.7656 15.8098L83.687 12.1201L78.6085 15.8098L80.5483 9.83965L75.4698 6.14987L81.7472 6.14987L83.687 0.179688Z" fill="#C6C6C6"/>
<path fill-rule="evenodd" clip-rule="evenodd" d="M102.453 4.02692C102.32 4.13998 102.254 4.19651 102.183 4.24399C102.02 4.35284 101.838 4.42838 101.646 4.46625C101.562 4.48277 101.476 4.4897 101.302 4.50357C100.865 4.53841 100.647 4.55583 100.465 4.62015C100.044 4.76893 99.7123 5.10025 99.5635 5.52146C99.4992 5.70358 99.4818 5.92186 99.4469 6.35843C99.4331 6.53219 99.4261 6.61907 99.4096 6.70274C99.3717 6.89454 99.2962 7.07692 99.1874 7.23932C99.1399 7.31016 99.0833 7.37649 98.9703 7.50916C98.6862 7.84251 98.5442 8.00915 98.4609 8.18342C98.2682 8.5865 98.2682 9.055 98.4609 9.45808C98.5442 9.63235 98.6862 9.799 98.9703 10.1323C99.0833 10.265 99.1399 10.3313 99.1874 10.4022C99.2962 10.5646 99.3717 10.747 99.4096 10.9388C99.4261 11.0224 99.4331 11.1093 99.4469 11.2831C99.4818 11.7196 99.4992 11.9379 99.5635 12.12C99.7123 12.5413 100.044 12.8726 100.465 13.0214C100.647 13.0856 100.865 13.1031 101.302 13.1379C101.476 13.1518 101.562 13.1588 101.646 13.1753C101.838 13.2131 102.02 13.2887 102.183 13.3975C102.254 13.445 102.32 13.5015 102.453 13.6146C102.786 13.8987 102.953 14.0407 103.127 14.124C103.53 14.3166 103.998 14.3166 104.401 14.124C104.576 14.0407 104.742 13.8987 105.076 13.6146C105.208 13.5015 105.275 13.445 105.346 13.3975C105.508 13.2887 105.69 13.2131 105.882 13.1753C105.966 13.1588 106.053 13.1518 106.226 13.1379C106.663 13.1031 106.881 13.0856 107.063 13.0214C107.485 12.8726 107.816 12.5413 107.965 12.12C108.029 11.9379 108.046 11.7196 108.081 11.2831C108.095 11.1093 108.102 11.0224 108.119 10.9388C108.156 10.747 108.232 10.5646 108.341 10.4022C108.388 10.3313 108.445 10.265 108.558 10.1323C108.842 9.799 108.984 9.63235 109.067 9.45808C109.26 9.055 109.26 8.5865 109.067 8.18342C108.984 8.00915 108.842 7.84251 108.558 7.50916C108.445 7.37649 108.388 7.31016 108.341 7.23932C108.232 7.07692 108.156 6.89454 108.119 6.70274C108.102 6.61907 108.095 6.53219 108.081 6.35843C108.046 5.92186 108.029 5.70358 107.965 5.52146C107.816 5.10025 107.485 4.76893 107.063 4.62015C106.881 4.55583 106.663 4.53841 106.226 4.50357C106.053 4.4897 105.966 4.48277 105.882 4.46625C105.69 4.42838 105.508 4.35284 105.346 4.24399C105.275 4.19651 105.208 4.13998 105.076 4.02692C104.742 3.74285 104.576 3.60082 104.401 3.51753C103.998 3.32489 103.53 3.32489 103.127 3.51753C102.953 3.60082 102.786 3.74285 102.453 4.02692ZM106.147 7.65665C106.32 7.4835 106.32 7.20278 106.147 7.02963C105.974 6.85649 105.693 6.85649 105.52 7.02963L102.877 9.6719L102.009 8.8031C101.835 8.62997 101.555 8.62997 101.382 8.8031C101.208 8.97623 101.208 9.25695 101.382 9.43013L102.564 10.6124C102.737 10.7856 103.018 10.7856 103.191 10.6124L106.147 7.65665Z" fill="#4285F4"/>
</svg>
