<svg width="25" height="24" viewBox="0 0 25 24" fill="none" xmlns="http://www.w3.org/2000/svg">
<g clip-path="url(#clip0_637_838)">
<path fill-rule="evenodd" clip-rule="evenodd" d="M13.5384 15.7069C13.3509 15.8943 13.0966 15.9996 12.8314 15.9996C12.5662 15.9996 12.3119 15.8943 12.1244 15.7069L6.4674 10.0499C6.37189 9.95761 6.29571 9.84726 6.2433 9.72526C6.19089 9.60326 6.1633 9.47204 6.16215 9.33926C6.16099 9.20648 6.1863 9.0748 6.23658 8.9519C6.28686 8.829 6.36111 8.71735 6.455 8.62346C6.5489 8.52957 6.66055 8.45531 6.78344 8.40503C6.90634 8.35475 7.03802 8.32945 7.1708 8.3306C7.30358 8.33176 7.4348 8.35934 7.5568 8.41175C7.67881 8.46416 7.78915 8.54034 7.8814 8.63585L12.8314 13.5859L17.7814 8.63585C17.97 8.4537 18.2226 8.3529 18.4848 8.35518C18.747 8.35746 18.9978 8.46263 19.1832 8.64804C19.3686 8.83344 19.4738 9.08426 19.4761 9.34645C19.4784 9.60865 19.3776 9.86125 19.1954 10.0499L13.5384 15.7069Z" fill="black"/>
</g>
<defs>
<clipPath id="clip0_637_838">
<rect width="24" height="24" fill="white" transform="translate(0.832031)"/>
</clipPath>
</defs>
</svg>
