<svg width="12" height="6" viewBox="0 0 12 6" fill="none" xmlns="http://www.w3.org/2000/svg">
<path d="M0.931541 0.156866L5.61654 4.76787C5.71876 4.86899 5.85675 4.92572 6.00054 4.92572C6.14433 4.92572 6.28232 4.86899 6.38454 4.76787L11.0695 0.157866C11.1724 0.0567908 11.3108 0.000154495 11.455 0.000154495C11.5992 0.000154495 11.7377 0.0567908 11.8405 0.157866C11.8912 0.207243 11.9314 0.266259 11.9589 0.331436C11.9864 0.396613 12.0006 0.466632 12.0006 0.537367C12.0006 0.608101 11.9864 0.67812 11.9589 0.743297C11.9314 0.808474 11.8912 0.867489 11.8405 0.916866L7.15654 5.52687C6.84802 5.82979 6.43292 5.99951 6.00054 5.99951C5.56816 5.99951 5.15306 5.82979 4.84454 5.52687L0.160541 0.916866C0.109739 0.867474 0.0693569 0.808396 0.0417821 0.743127C0.0142074 0.677857 0 0.607721 0 0.536866C0 0.466011 0.0142074 0.395876 0.0417821 0.330606C0.0693569 0.265337 0.109739 0.206259 0.160541 0.156866C0.263396 0.0557904 0.401834 -0.000845909 0.546041 -0.000845909C0.690248 -0.000845909 0.828686 0.0557904 0.931541 0.156866Z" fill="white"/>
</svg>
