<svg width="13" height="12" viewBox="0 0 13 12" fill="none" xmlns="http://www.w3.org/2000/svg">
<path d="M2.00207 5.5734L6.64006 0.935417C6.72306 0.852419 6.76655 0.754638 6.77053 0.642077C6.77394 0.529517 6.72846 0.426338 6.63409 0.332539C6.54086 0.241581 6.44052 0.195249 6.33308 0.193543C6.2262 0.192407 6.12558 0.238738 6.03121 0.332539L0.846628 5.51712C0.772156 5.59216 0.719856 5.66834 0.689726 5.74566C0.659596 5.82297 0.644531 5.90767 0.644531 5.99977C0.644531 6.09186 0.659596 6.17657 0.689726 6.25388C0.719856 6.3312 0.772156 6.40709 0.846628 6.48156L6.03121 11.667C6.1108 11.7466 6.20773 11.7892 6.322 11.7949C6.43683 11.8006 6.54115 11.758 6.63495 11.667C6.72875 11.5732 6.77565 11.472 6.77565 11.3634C6.77565 11.2543 6.72875 11.1528 6.63495 11.059L2.00122 6.42613H11.8758C11.9975 6.42613 12.0989 6.38549 12.1802 6.30419C12.2615 6.2229 12.3022 6.12142 12.3022 5.99977C12.3022 5.87811 12.2615 5.77664 12.1802 5.69534C12.0989 5.61405 11.9975 5.5734 11.8758 5.5734H2.00207Z" fill="white"/>
</svg>
