<svg width="22" height="20" viewBox="0 0 22 20" fill="none" xmlns="http://www.w3.org/2000/svg">
<path d="M19.058 7.723C20.006 7.189 20.481 6.922 20.74 6.491C21 6.061 21 5.542 21 4.504V3.814C21 2.488 21 1.824 20.56 1.412C20.122 1 19.415 1 18 1H4C2.586 1 1.879 1 1.44 1.412C1.001 1.824 1 2.488 1 3.815V4.505C1 5.542 1 6.061 1.26 6.491C1.52 6.921 1.993 7.189 2.942 7.723L5.855 9.363C6.491 9.721 6.81 9.9 7.038 10.098C7.512 10.509 7.804 10.993 7.936 11.588C8 11.872 8 12.206 8 12.873V15.543C8 16.452 8 16.907 8.252 17.261C8.504 17.616 8.952 17.791 9.846 18.141C11.725 18.875 12.664 19.242 13.332 18.824C14 18.406 14 17.452 14 15.542V12.872C14 12.206 14 11.872 14.064 11.587C14.1896 11.0042 14.5059 10.4798 14.963 10.097" stroke="white" stroke-width="1.5" stroke-linecap="round"/>
</svg>
