<svg width="26" height="24" viewBox="0 0 26 24" fill="none" xmlns="http://www.w3.org/2000/svg">
<path d="M23.0886 2.92C24.3107 4.14698 24.9969 5.80822 24.9969 7.54C24.9969 9.27178 24.3107 10.933 23.0886 12.16L12.9953 22.3333L2.90193 12.16C1.99425 11.2462 1.37629 10.085 1.12541 8.82164C0.874517 7.55832 1.00185 6.24907 1.49146 5.05777C1.98108 3.86647 2.81122 2.84607 3.87796 2.12429C4.94471 1.40251 6.20066 1.01143 7.4886 1C9.21079 1.01045 10.8592 1.70048 12.0753 2.92C12.4299 3.27096 12.739 3.66517 12.9953 4.09333C13.2515 3.66517 13.5606 3.27096 13.9153 2.92C14.5144 2.31207 15.2285 1.82932 16.0159 1.49982C16.8033 1.17031 17.6484 1.00063 18.5019 1.00063C19.3555 1.00063 20.2006 1.17031 20.988 1.49982C21.7754 1.82932 22.4894 2.31207 23.0886 2.92Z" stroke="white" stroke-width="1.5" stroke-linecap="round" stroke-linejoin="round"/>
</svg>
