<svg width="94" height="19" viewBox="0 0 94 19" fill="none" xmlns="http://www.w3.org/2000/svg">
<path d="M9.18696 0.553711L11.1614 6.63048L17.5509 6.63048L12.3817 10.3861L14.3562 16.4629L9.18696 12.7073L4.01775 16.4629L5.99222 10.3861L0.823006 6.63048L7.2125 6.63048L9.18696 0.553711Z" fill="#FFC44D"/>
<path d="M28.0795 0.553711L30.054 6.63048L36.4435 6.63048L31.2743 10.3861L33.2488 16.4629L28.0795 12.7073L22.9103 16.4629L24.8848 10.3861L19.7156 6.63048L26.1051 6.63048L28.0795 0.553711Z" fill="#FFC44D"/>
<path d="M46.9702 0.553711L48.9446 6.63048L55.3341 6.63048L50.1649 10.3861L52.1394 16.4629L46.9702 12.7073L41.801 16.4629L43.7754 10.3861L38.6062 6.63048L44.9957 6.63048L46.9702 0.553711Z" fill="#FFC44D"/>
<path d="M65.8627 0.553711L67.8372 6.63048L74.2267 6.63048L69.0575 10.3861L71.032 16.4629L65.8627 12.7073L60.6935 16.4629L62.668 10.3861L57.4988 6.63048L63.8883 6.63048L65.8627 0.553711Z" fill="#ADADAD"/>
<path d="M84.7534 0.553711L86.7278 6.63048L93.1173 6.63048L87.9481 10.3861L89.9226 16.4629L84.7534 12.7073L79.5842 16.4629L81.5586 10.3861L76.3894 6.63048L82.7789 6.63048L84.7534 0.553711Z" fill="#ADADAD"/>
</svg>
