<svg width="97" height="20" viewBox="0 0 97 20" fill="none" xmlns="http://www.w3.org/2000/svg">
<path d="M9.13366 0.850586L11.1843 7.16179H17.8203L12.4517 11.0623L14.5023 17.3735L9.13366 13.473L3.76503 17.3735L5.81567 11.0623L0.447033 7.16179H7.08303L9.13366 0.850586Z" fill="#DB5825"/>
<path d="M28.7548 0.850586L30.8054 7.16179H37.4414L32.0728 11.0623L34.1234 17.3735L28.7548 13.473L23.3861 17.3735L25.4368 11.0623L20.0681 7.16179H26.7041L28.7548 0.850586Z" fill="#DB5825"/>
<path d="M48.3759 0.850586L50.4265 7.16179H57.0625L51.6938 11.0623L53.7445 17.3735L48.3759 13.473L43.0072 17.3735L45.0579 11.0623L39.6892 7.16179H46.3252L48.3759 0.850586Z" fill="#DB5825"/>
<path d="M67.9969 0.850586L70.0476 7.16179H76.6836L71.3149 11.0623L73.3656 17.3735L67.9969 13.473L62.6283 17.3735L64.6789 11.0623L59.3103 7.16179H65.9463L67.9969 0.850586Z" fill="#DB5825"/>
<path d="M87.6141 0.850586L89.6648 7.16179H96.3008L90.9321 11.0623L92.9828 17.3735L87.6141 13.473L82.2455 17.3735L84.2961 11.0623L78.9275 7.16179H85.5635L87.6141 0.850586Z" fill="#D9D9D9"/>
</svg>
