<svg width="24" height="24" viewBox="0 0 24 24" fill="none" xmlns="http://www.w3.org/2000/svg">
<g clip-path="url(#clip0_1693_1384)">
<rect width="24" height="24" rx="8" fill="#D9D9D9"/>
<path d="M16.8081 7.35734C16.7003 7.22555 16.5647 7.11914 16.4111 7.04567C16.2575 6.9722 16.0895 6.93348 15.9193 6.93224H15.4555L15.5715 6.27528C15.5932 6.11916 15.5839 5.96028 15.5441 5.80776C15.5043 5.65524 15.4348 5.51206 15.3396 5.38645C15.1176 5.15146 14.8124 5.01274 14.4894 5H5.25328C5.04829 5 4.8517 5.08143 4.70676 5.22638C4.56181 5.37132 4.48038 5.56791 4.48038 5.7729C4.48038 5.97788 4.56181 6.17447 4.70676 6.31942C4.8517 6.46437 5.04829 6.5458 5.25328 6.5458H13.9484L12.4026 15.3955C12.2281 15.6418 12.0974 15.9163 12.0161 16.207H10.2385C10.0703 15.6512 9.72775 15.1643 9.26147 14.8182C8.79519 14.4722 8.22993 14.2853 7.64926 14.2853C7.06859 14.2853 6.50333 14.4722 6.03705 14.8182C5.57077 15.1643 5.22823 15.6512 5.06006 16.207H4.63496L4.82819 15.0863C4.86209 14.8867 4.8163 14.6817 4.70067 14.5155C4.58505 14.3493 4.40881 14.2351 4.20987 14.1975C4.01025 14.1636 3.8053 14.2094 3.63909 14.325C3.47287 14.4406 3.35867 14.6169 3.32104 14.8158L3.01188 16.4775C2.98813 16.6365 3.00009 16.7987 3.04688 16.9525C3.09367 17.1062 3.17412 17.2476 3.28239 17.3664C3.38207 17.4852 3.50612 17.5812 3.64614 17.6478C3.78615 17.7145 3.93887 17.7503 4.09393 17.7528H5.06006C5.22823 18.3086 5.57077 18.7955 6.03705 19.1416C6.50333 19.4877 7.06859 19.6745 7.64926 19.6745C8.22993 19.6745 8.79519 19.4877 9.26147 19.1416C9.72775 18.7955 10.0703 18.3086 10.2385 17.7528H12.0161C12.1843 18.3086 12.5269 18.7955 12.9931 19.1416C13.4594 19.4877 14.0247 19.6745 14.6053 19.6745C15.186 19.6745 15.7513 19.4877 16.2176 19.1416C16.6838 18.7955 17.0264 18.3086 17.1945 17.7528H17.9674C18.2579 17.7473 18.5371 17.6397 18.7562 17.4489C18.9752 17.2581 19.1201 16.9963 19.1654 16.7094L20.0156 11.7629L16.8081 7.35734ZM7.64926 18.1393C7.34178 18.1393 7.0469 18.0171 6.82948 17.7997C6.61206 17.5823 6.48992 17.2874 6.48992 16.9799C6.48992 16.6724 6.61206 16.3776 6.82948 16.1601C7.0469 15.9427 7.34178 15.8206 7.64926 15.8206C7.95674 15.8206 8.25162 15.9427 8.46904 16.1601C8.68646 16.3776 8.80861 16.6724 8.80861 16.9799C8.80861 17.2874 8.68646 17.5823 8.46904 17.7997C8.25162 18.0171 7.95674 18.1393 7.64926 18.1393ZM15.185 8.47804H15.6874L17.9674 11.5696H14.644L15.185 8.47804ZM14.6053 18.1393C14.2979 18.1393 14.003 18.0171 13.7856 17.7997C13.5681 17.5823 13.446 17.2874 13.446 16.9799C13.446 16.6724 13.5681 16.3776 13.7856 16.1601C14.003 15.9427 14.2979 15.8206 14.6053 15.8206C14.9128 15.8206 15.2077 15.9427 15.4251 16.1601C15.6425 16.3776 15.7647 16.6724 15.7647 16.9799C15.7647 17.2874 15.6425 17.5823 15.4251 17.7997C15.2077 18.0171 14.9128 18.1393 14.6053 18.1393ZM17.6969 16.207H17.1945C17.0283 15.6493 16.6865 15.16 16.2201 14.8119C15.7536 14.4638 15.1874 14.2755 14.6053 14.2748H14.1802L14.3735 13.0768H18.1993L17.6969 16.207Z" fill="#7A7A7A"/>
<path d="M3.78462 8.86464H7.6491C7.85409 8.86464 8.05068 8.78321 8.19563 8.63827C8.34057 8.49332 8.422 8.29673 8.422 8.09175C8.422 7.88676 8.34057 7.69017 8.19563 7.54522C8.05068 7.40028 7.85409 7.31885 7.6491 7.31885H3.78462C3.57963 7.31885 3.38304 7.40028 3.2381 7.54522C3.09315 7.69017 3.01172 7.88676 3.01172 8.09175C3.01172 8.29673 3.09315 8.49332 3.2381 8.63827C3.38304 8.78321 3.57963 8.86464 3.78462 8.86464Z" fill="#7A7A7A"/>
<path d="M8.03582 10.4101C8.03582 10.2051 7.95439 10.0085 7.80945 9.86358C7.6645 9.71864 7.46791 9.63721 7.26293 9.63721H4.17134C3.96635 9.63721 3.76976 9.71864 3.62481 9.86358C3.47987 10.0085 3.39844 10.2051 3.39844 10.4101C3.39844 10.6151 3.47987 10.8117 3.62481 10.9566C3.76976 11.1016 3.96635 11.183 4.17134 11.183H7.26293C7.46791 11.183 7.6645 11.1016 7.80945 10.9566C7.95439 10.8117 8.03582 10.6151 8.03582 10.4101Z" fill="#7A7A7A"/>
<path d="M4.55805 11.9561C4.35307 11.9561 4.15648 12.0375 4.01153 12.1824C3.86659 12.3274 3.78516 12.524 3.78516 12.729C3.78516 12.9339 3.86659 13.1305 4.01153 13.2755C4.15648 13.4204 4.35307 13.5019 4.55805 13.5019H6.87675C7.08173 13.5019 7.27832 13.4204 7.42327 13.2755C7.56821 13.1305 7.64964 12.9339 7.64964 12.729C7.64964 12.524 7.56821 12.3274 7.42327 12.1824C7.27832 12.0375 7.08173 11.9561 6.87675 11.9561H4.55805Z" fill="#7A7A7A"/>
</g>
<defs>
<clipPath id="clip0_1693_1384">
<rect width="24" height="24" rx="8" fill="white"/>
</clipPath>
</defs>
</svg>
