<svg width="24" height="24" viewBox="0 0 24 24" fill="none" xmlns="http://www.w3.org/2000/svg">
<path fill-rule="evenodd" clip-rule="evenodd" d="M19.2 21.1437H21.6V18.858H19.2V21.1437ZM21.6 16.5723H19.2C17.874 16.5723 16.8 17.5951 16.8 18.858V21.1437C16.8 22.4054 17.874 23.4294 19.2 23.4294H21.6C22.9248 23.4294 24 22.4054 24 21.1437V18.858C24 17.5951 22.9248 16.5723 21.6 16.5723ZM10.8 21.1437H13.2V18.858H10.8V21.1437ZM13.2 16.5723H10.8C9.474 16.5723 8.40001 17.5951 8.40001 18.858V21.1437C8.40001 22.4054 9.474 23.4294 10.8 23.4294H13.2C14.5248 23.4294 15.6 22.4054 15.6 21.1437V18.858C15.6 17.5951 14.5248 16.5723 13.2 16.5723ZM2.40001 21.1437H4.8V18.858H2.40001V21.1437ZM4.8 16.5723H2.40001C1.07401 16.5723 0 17.5951 0 18.858V21.1437C0 22.4054 1.07401 23.4294 2.40001 23.4294H4.8C6.1248 23.4294 7.2 22.4054 7.2 21.1437V18.858C7.2 17.5951 6.1248 16.5723 4.8 16.5723ZM19.2 13.1437H21.6V10.858H19.2V13.1437ZM21.6 8.57227H19.2C17.874 8.57227 16.8 9.59512 16.8 10.858V13.1437C16.8 14.4054 17.874 15.4294 19.2 15.4294H21.6C22.9248 15.4294 24 14.4054 24 13.1437V10.858C24 9.59512 22.9248 8.57227 21.6 8.57227ZM10.8 13.1437H13.2V10.858H10.8V13.1437ZM13.2 8.57227H10.8C9.474 8.57227 8.40001 9.59512 8.40001 10.858V13.1437C8.40001 14.4054 9.474 15.4294 10.8 15.4294H13.2C14.5248 15.4294 15.6 14.4054 15.6 13.1437V10.858C15.6 9.59512 14.5248 8.57227 13.2 8.57227ZM2.40001 13.1437H4.8V10.858H2.40001V13.1437ZM4.8 8.57227H2.40001C1.07401 8.57227 0 9.59512 0 10.858V13.1437C0 14.4054 1.07401 15.4294 2.40001 15.4294H4.8C6.1248 15.4294 7.2 14.4054 7.2 13.1437V10.858C7.2 9.59512 6.1248 8.57227 4.8 8.57227ZM19.2 5.14369H21.6V2.85798H19.2V5.14369ZM21.6 0.572266H19.2C17.874 0.572266 16.8 1.59512 16.8 2.85798V5.14369C16.8 6.40541 17.874 7.42941 19.2 7.42941H21.6C22.9248 7.42941 24 6.40541 24 5.14369V2.85798C24 1.59512 22.9248 0.572266 21.6 0.572266ZM10.8 5.14369H13.2V2.85798H10.8V5.14369ZM13.2 0.572266H10.8C9.474 0.572266 8.40001 1.59512 8.40001 2.85798V5.14369C8.40001 6.40541 9.474 7.42941 10.8 7.42941H13.2C14.5248 7.42941 15.6 6.40541 15.6 5.14369V2.85798C15.6 1.59512 14.5248 0.572266 13.2 0.572266ZM2.40001 5.14369H4.8V2.85798H2.40001V5.14369ZM4.8 0.572266H2.40001C1.07401 0.572266 0 1.59512 0 2.85798V5.14369C0 6.40541 1.07401 7.42941 2.40001 7.42941H4.8C6.1248 7.42941 7.2 6.40541 7.2 5.14369V2.85798C7.2 1.59512 6.1248 0.572266 4.8 0.572266Z" fill="#8F8F8F"/>
</svg>
