<svg width="18" height="19" viewBox="0 0 18 19" fill="none" xmlns="http://www.w3.org/2000/svg">
<path fill-rule="evenodd" clip-rule="evenodd" d="M8.47169 12.2803C8.61234 12.4209 8.80307 12.4999 9.00194 12.4999C9.20081 12.4999 9.39154 12.4209 9.53219 12.2803L13.7749 8.03751C13.8466 7.96833 13.9037 7.88557 13.943 7.79407C13.9823 7.70256 14.003 7.60415 14.0039 7.50456C14.0047 7.40498 13.9858 7.30622 13.9481 7.21405C13.9103 7.12188 13.8547 7.03814 13.7842 6.96772C13.7138 6.8973 13.6301 6.84161 13.5379 6.8039C13.4457 6.76619 13.347 6.74721 13.2474 6.74808C13.1478 6.74894 13.0494 6.76963 12.9579 6.80894C12.8664 6.84824 12.7836 6.90538 12.7144 6.97701L9.00194 10.6895L5.28944 6.97701C5.14799 6.8404 4.95854 6.7648 4.76189 6.76651C4.56524 6.76822 4.37713 6.84709 4.23808 6.98615C4.09902 7.12521 4.02014 7.31332 4.01843 7.50996C4.01673 7.70661 4.09232 7.89606 4.22894 8.03751L8.47169 12.2803Z" fill="black"/>
</svg>
