<svg width="18" height="19" viewBox="0 0 18 19" fill="none" xmlns="http://www.w3.org/2000/svg">
<path fill-rule="evenodd" clip-rule="evenodd" d="M8.47169 6.71974C8.61234 6.57913 8.80307 6.50015 9.00194 6.50015C9.20081 6.50015 9.39154 6.57913 9.53219 6.71974L13.7749 10.9625C13.8466 11.0317 13.9037 11.1144 13.943 11.2059C13.9823 11.2974 14.003 11.3959 14.0039 11.4954C14.0047 11.595 13.9858 11.6938 13.9481 11.786C13.9103 11.8781 13.8547 11.9619 13.7842 12.0323C13.7138 12.1027 13.6301 12.1584 13.5379 12.1961C13.4457 12.2338 13.347 12.2528 13.2474 12.2519C13.1478 12.2511 13.0494 12.2304 12.9579 12.1911C12.8664 12.1518 12.7836 12.0946 12.7144 12.023L9.00194 8.31049L5.28944 12.023C5.14799 12.1596 4.95854 12.2352 4.76189 12.2335C4.56524 12.2318 4.37713 12.1529 4.23808 12.0139C4.09902 11.8748 4.02014 11.6867 4.01843 11.49C4.01673 11.2934 4.09232 11.1039 4.22894 10.9625L8.47169 6.71974Z" fill="black"/>
</svg>
