<svg width="17" height="17" viewBox="0 0 17 17" fill="none" xmlns="http://www.w3.org/2000/svg">
<path d="M8.43247 11.4484L3.12247 5.87542C3.03383 5.78243 2.98437 5.65889 2.98438 5.53042C2.98438 5.40194 3.03383 5.2784 3.12247 5.18542L3.12847 5.17942C3.17144 5.13418 3.22317 5.09816 3.2805 5.07355C3.33784 5.04893 3.39958 5.03624 3.46197 5.03624C3.52436 5.03624 3.5861 5.04893 3.64344 5.07355C3.70077 5.09816 3.7525 5.13418 3.79547 5.17942L8.79547 10.4274L13.7935 5.17942C13.8364 5.13418 13.8882 5.09816 13.9455 5.07355C14.0028 5.04893 14.0646 5.03624 14.127 5.03624C14.1894 5.03624 14.2511 5.04893 14.3084 5.07355C14.3658 5.09816 14.4175 5.13418 14.4605 5.17942L14.4665 5.18542C14.5551 5.2784 14.6046 5.40194 14.6046 5.53042C14.6046 5.65889 14.5551 5.78243 14.4665 5.87542L9.15647 11.4484C9.10977 11.4974 9.05361 11.5364 8.99138 11.5631C8.92916 11.5898 8.86217 11.6035 8.79447 11.6035C8.72677 11.6035 8.65978 11.5898 8.59756 11.5631C8.53533 11.5364 8.47917 11.4974 8.43247 11.4484Z" fill="#1E1E1E"/>
</svg>
