<svg width="25" height="26" viewBox="0 0 25 26" fill="none" xmlns="http://www.w3.org/2000/svg">
<path d="M5.1372 3.78646H24.125L21.5417 12.8281H6.52825M22.8333 17.9948H7.33333L4.75 1.20312H0.875M8.625 23.1615C8.625 23.8748 8.04669 24.4531 7.33333 24.4531C6.61997 24.4531 6.04167 23.8748 6.04167 23.1615C6.04167 22.4481 6.61997 21.8698 7.33333 21.8698C8.04669 21.8698 8.625 22.4481 8.625 23.1615ZM22.8333 23.1615C22.8333 23.8748 22.2551 24.4531 21.5417 24.4531C20.8283 24.4531 20.25 23.8748 20.25 23.1615C20.25 22.4481 20.8283 21.8698 21.5417 21.8698C22.2551 21.8698 22.8333 22.4481 22.8333 23.1615Z" stroke="black" stroke-width="1.5" stroke-linecap="round" stroke-linejoin="round"/>
</svg>
