<svg width="26" height="24" viewBox="0 0 26 24" fill="none" xmlns="http://www.w3.org/2000/svg">
<path d="M23.0925 3.08113C24.3146 4.30812 25.0008 5.96935 25.0008 7.70113C25.0008 9.43292 24.3146 11.0941 23.0925 12.3211L12.9992 22.4945L2.90583 12.3211C1.99816 11.4073 1.3802 10.2461 1.12931 8.98277C0.878424 7.71945 1.00576 6.4102 1.49537 5.2189C1.98498 4.0276 2.81512 3.0072 3.88187 2.28542C4.94861 1.56364 6.20457 1.17256 7.4925 1.16113C9.21469 1.17158 10.8631 1.86161 12.0792 3.08113C12.4338 3.4321 12.7429 3.82631 12.9992 4.25447C13.2554 3.82631 13.5645 3.4321 13.9192 3.08113C14.5183 2.47321 15.2324 1.99046 16.0198 1.66095C16.8072 1.33145 17.6523 1.16176 18.5058 1.16176C19.3594 1.16176 20.2045 1.33145 20.9919 1.66095C21.7793 1.99046 22.4933 2.47321 23.0925 3.08113Z" stroke="black" stroke-width="1.5" stroke-linecap="round" stroke-linejoin="round"/>
</svg>
