<svg width="286" height="72" viewBox="0 0 286 72" fill="none" xmlns="http://www.w3.org/2000/svg">
<path d="M46.6379 31.3042H58.4819C61.6019 31.3042 63.8939 31.8682 65.3579 32.9962C66.8459 34.1242 67.5899 35.8882 67.5899 38.2882C67.5899 39.8722 67.3019 41.1082 66.7259 41.9962C66.1499 42.8842 65.2379 43.4722 63.9899 43.7602V43.7962C65.5499 44.0842 66.6899 44.7442 67.4099 45.7762C68.1539 46.7842 68.5259 48.2242 68.5259 50.0962C68.5259 52.6882 67.7339 54.5962 66.1499 55.8202C64.5899 57.0442 62.1539 57.6562 58.8419 57.6562H46.6379V31.3042ZM57.2939 41.4562C58.0379 41.4562 58.5899 41.3122 58.9499 41.0242C59.3099 40.7362 59.4899 40.2802 59.4899 39.6562C59.4899 39.0082 59.3099 38.5282 58.9499 38.2162C58.5899 37.9042 58.0259 37.7482 57.2579 37.7482H54.7019V41.4562H57.2939ZM58.1219 51.2122C59.6819 51.2122 60.4619 50.5162 60.4619 49.1242C60.4619 47.7082 59.6579 47.0002 58.0499 47.0002H54.7019V51.2122H58.1219ZM88.6494 57.6562L80.3334 48.2242V57.6562H72.2694V31.3042H80.3334V41.6002L88.1814 31.3042H97.6134L86.7054 44.8042L98.6574 57.6562H88.6494ZM118.404 37.7482V41.4562H129.852V47.9002H118.404V57.6562H110.34V31.3042H131.328V37.7482H118.404ZM149.908 57.6562L148.216 53.9122H138.568L136.876 57.6562H128.236L139.9 31.3402H146.884L158.548 57.6562H149.908ZM143.392 41.1322L140.872 47.7922H145.948L143.392 41.1322ZM160.937 49.0522C162.065 49.7242 163.481 50.2882 165.185 50.7442C166.889 51.1762 168.497 51.3922 170.009 51.3922C171.065 51.3922 171.797 51.2962 172.205 51.1042C172.637 50.8882 172.853 50.4562 172.853 49.8082C172.853 49.2802 172.661 48.9322 172.277 48.7642C171.917 48.5722 171.221 48.3922 170.189 48.2242L168.929 48.0082C166.409 47.5282 164.381 46.9402 162.845 46.2442C161.309 45.5482 160.181 44.6842 159.461 43.6522C158.741 42.5962 158.381 41.3242 158.381 39.8362C158.381 36.7642 159.221 34.5202 160.901 33.1042C162.605 31.6642 165.365 30.9442 169.181 30.9442C171.269 30.9442 173.261 31.2202 175.157 31.7722C177.053 32.3242 178.733 33.0562 180.197 33.9682L177.029 39.6202C175.973 39.0442 174.689 38.5762 173.177 38.2162C171.689 37.8562 170.297 37.6762 169.001 37.6762C168.089 37.6762 167.429 37.7842 167.021 38.0002C166.637 38.2162 166.445 38.5882 166.445 39.1162C166.445 39.5242 166.553 39.8362 166.769 40.0522C166.985 40.2682 167.285 40.4242 167.669 40.5202C168.053 40.6162 168.737 40.7482 169.721 40.9162C172.433 41.3242 174.593 41.8642 176.201 42.5362C177.833 43.1842 179.021 44.0362 179.765 45.0922C180.533 46.1242 180.917 47.4322 180.917 49.0162C180.917 52.1602 180.077 54.4642 178.397 55.9282C176.717 57.3682 173.969 58.0883 170.153 58.0883C167.825 58.0883 165.605 57.8122 163.493 57.2602C161.381 56.6842 159.569 55.8442 158.057 54.7402L160.937 49.0522ZM208.541 31.3042V57.6562H200.513V48.0082H192.269V57.6562H184.241V31.3042H192.269V41.5642H200.513V31.3042H208.541ZM221.979 57.6562H213.951V31.3042H221.979V57.6562ZM239.916 58.0883C235.284 58.0883 231.768 56.9362 229.368 54.6322C226.992 52.3282 225.804 48.9442 225.804 44.4802C225.804 40.0162 226.992 36.6322 229.368 34.3282C231.768 32.0242 235.284 30.8722 239.916 30.8722C244.548 30.8722 248.052 32.0242 250.428 34.3282C252.804 36.6322 253.992 40.0162 253.992 44.4802C253.992 48.9442 252.804 52.3282 250.428 54.6322C248.052 56.9362 244.548 58.0883 239.916 58.0883ZM239.916 37.6042C237.924 37.6042 236.412 38.1922 235.38 39.3682C234.372 40.5202 233.868 42.2242 233.868 44.4802C233.868 46.7362 234.372 48.4402 235.38 49.5922C236.412 50.7442 237.924 51.3202 239.916 51.3202C241.884 51.3202 243.372 50.7442 244.38 49.5922C245.412 48.4402 245.928 46.7362 245.928 44.4802C245.928 42.2242 245.424 40.5202 244.416 39.3682C243.408 38.1922 241.908 37.6042 239.916 37.6042ZM275.254 57.6562L265.534 44.7322V57.6562H257.506V31.3042H264.922L274.678 44.3722V31.3042H282.706V57.6562H275.254Z" fill="black"/>
<path d="M0.288 58.56L0.96 40.992H6.336L7.872 51.168C9.152 51.424 10.56 51.712 12.096 52.032C13.696 52.352 15.264 52.672 16.8 52.992C18.4 53.248 19.808 53.472 21.024 53.664C22.24 53.792 23.104 53.856 23.616 53.856C23.936 53.856 24.544 53.6 25.44 53.088C26.4 52.576 27.424 51.968 28.512 51.264C29.6 50.496 30.56 49.728 31.392 48.96C32.288 48.192 32.768 47.552 32.832 47.04C32.96 46.336 33.056 45.536 33.12 44.64C33.184 43.68 33.216 42.752 33.216 41.856C33.216 40.896 33.152 40.064 33.024 39.36C32.96 38.656 32.832 38.208 32.64 38.016C32.128 37.312 31.072 36.416 29.472 35.328C27.936 34.24 26.144 33.056 24.096 31.776C22.112 30.432 20.096 29.088 18.048 27.744C16.064 26.4 14.304 25.12 12.768 23.904C11.296 22.688 10.304 21.632 9.792 20.736C9.664 20.416 9.504 19.808 9.312 18.912C9.184 17.952 9.088 16.864 9.024 15.648C8.96 14.368 8.896 13.152 8.832 12C7.68 12.896 6.784 13.696 6.144 14.4C5.568 15.04 5.152 15.68 4.896 16.32C4.704 16.96 4.608 17.728 4.608 18.624C4.608 19.648 4.672 20.544 4.8 21.312C4.992 22.016 5.216 22.688 5.472 23.328C6.112 24.544 7.104 25.632 8.448 26.592C9.792 27.552 11.584 28.832 13.824 30.432C15.296 31.456 16.8 32.512 18.336 33.6C19.872 34.624 21.312 35.648 22.656 36.672C24.064 37.632 25.248 38.528 26.208 39.36C27.168 40.128 27.776 40.8 28.032 41.376C28.352 42.016 28.48 42.752 28.416 43.584C28.416 44.352 28.352 44.992 28.224 45.504C27.968 46.08 27.296 46.752 26.208 47.52C25.184 48.224 24.224 48.8 23.328 49.248C23.392 48.48 23.424 47.712 23.424 46.944C23.488 46.176 23.488 45.472 23.424 44.832C23.424 44.192 23.296 43.712 23.04 43.392C22.528 42.688 21.472 41.76 19.872 40.608C18.336 39.456 16.544 38.208 14.496 36.864C12.448 35.52 10.4 34.144 8.352 32.736C6.368 31.328 4.64 29.984 3.168 28.704C1.76 27.36 0.928 26.208 0.672 25.248C0.48 24.544 0.319999 23.744 0.191999 22.848C0.0639997 21.888 0 20.896 0 19.872C0 18.848 0.0319998 17.888 0.0959997 16.992C0.224 16.032 0.384 15.232 0.576 14.592C1.152 13.504 2.08 12.32 3.36 11.04C4.64 9.696 6.08 8.384 7.68 7.104C9.344 5.75999 11.008 4.576 12.672 3.552C14.4 2.464 16 1.6 17.472 0.959999C19.008 0.32 20.256 0 21.216 0C21.6 0 22.272 0.0319977 23.232 0.0959969C24.256 0.0959969 25.44 0.159996 26.784 0.287994C28.192 0.351994 29.632 0.447994 31.104 0.575996C32.64 0.703995 34.112 0.863995 35.52 1.056C36.928 1.248 38.176 1.44 39.264 1.632L38.496 18.144H33.12L31.68 8.35199C30.72 7.904 29.568 7.52 28.224 7.2C26.944 6.81599 25.664 6.528 24.384 6.336C23.104 6.144 22.016 6.048 21.12 6.048C20.608 6.048 20.16 6.112 19.776 6.24C19.392 6.304 19.072 6.39999 18.816 6.52799C18.624 6.65599 18.464 6.848 18.336 7.104C18.08 7.55199 17.888 8.256 17.76 9.216C17.696 10.176 17.664 11.2 17.664 12.288C17.728 13.312 17.824 14.272 17.952 15.168C18.08 16 18.272 16.544 18.528 16.8C19.296 17.632 20.352 18.528 21.696 19.488C23.104 20.448 24.64 21.44 26.304 22.464C28.032 23.488 29.76 24.576 31.488 25.728C33.28 26.816 34.912 27.968 36.384 29.184C37.92 30.336 39.2 31.488 40.224 32.64C40.416 33.408 40.544 34.496 40.608 35.904C40.736 37.312 40.8 38.816 40.8 40.416C40.8 41.952 40.736 43.392 40.608 44.736C40.544 46.08 40.416 47.072 40.224 47.712C39.648 48.928 38.656 50.24 37.248 51.648C35.84 52.992 34.24 54.272 32.448 55.488C30.72 56.704 29.056 57.696 27.456 58.464C25.856 59.168 24.576 59.52 23.616 59.52C22.4 59.52 20.768 59.488 18.72 59.424C16.736 59.36 14.592 59.264 12.288 59.136C9.984 59.072 7.776 58.976 5.664 58.848C3.552 58.784 1.76 58.688 0.288 58.56Z" fill="#DB5825"/>
</svg>
